<svg width="65" height="58" viewBox="0 0 65 58" fill="none" xmlns="http://www.w3.org/2000/svg">
<rect y="11" width="27" height="5" fill="#FF6D03"/>
<g clip-path="url(#clip0)">
<path d="M28.8066 27.4068C28.8134 27.3546 28.8131 27.3567 28.8066 27.4068V27.4068Z" fill="#BADFF3"/>
<path d="M32.9492 40.2455C30.5775 38.6061 28.0571 39.5077 27.3757 39.5404C27.408 39.2666 28.7222 28.1295 28.8077 27.4047C28.2867 26.8243 27.5386 26.4961 26.7208 26.4972C25.8022 26.4917 24.8706 26.8864 24.1182 27.5938C24.0562 27.6455 23.9941 27.6969 23.9353 27.7821C23.9029 28.0557 21.8388 45.5103 21.7055 46.638C21.3139 49.2629 22.2253 51.7183 24.1509 53.0495C27.2178 55.1695 31.5049 53.6948 33.8405 50.4304C36.3087 46.9745 35.9805 42.3409 32.9492 40.2455ZM26.3416 49.8423C24.8437 48.8068 24.6681 46.5451 25.8754 44.7985C27.1121 43.0094 29.2963 42.4419 30.7585 43.4526C32.2386 44.4757 32.4468 46.7284 31.2247 48.4963C29.988 50.2854 27.8038 50.853 26.3416 49.8423Z" fill="#BADFF3"/>
<path d="M21.2625 31.1071L17.7904 32.9083C17.5656 32.2634 17.5301 29.5854 15.1509 27.9408C12.1311 25.8535 7.67191 27.1764 5.30471 30.7193C3.08032 34.0481 3.22812 38.5818 6.29764 40.7037C8.20965 42.0253 10.8347 42.0324 13.148 40.7206L20.5827 36.8613L21.2625 31.1071ZM8.5107 37.5135C7.04947 36.5034 6.82191 34.2577 8.04893 32.4759C9.26783 30.7061 11.454 30.1128 12.9319 31.1289C14.3969 32.1358 14.6265 34.3891 13.3969 36.1727C12.1912 37.9217 10.0072 38.548 8.5107 37.5135Z" fill="#BADFF3"/>
<path d="M50.0095 17.6451C49.9389 16.8868 49.1635 16.5293 48.466 16.9034L31.2656 25.9178L30.5872 31.6684L44.7915 24.2041C48.5615 22.0663 50.2286 19.9971 50.0095 17.6451Z" fill="#BADFF3"/>
<path d="M31.5216 5.18042C31.6161 4.39579 31.009 3.7872 30.2779 4.006C27.9992 4.63413 26.6579 6.91741 25.986 11.2059L24.2918 24.7813C25.1716 24.3137 26.1381 24.0307 27.1137 24.036C27.837 24.035 28.5151 24.2396 29.1472 24.5394L31.5216 5.18042Z" fill="#BADFF3"/>
</g>
<rect x="43.4768" y="15" width="29.7462" height="5" transform="rotate(44.0556 43.4768 15)" fill="#FF6D03"/>
<defs>
<clipPath id="clip0">
<rect width="37" height="44.1953" fill="white" transform="translate(25.1306) rotate(34.6545)"/>
</clipPath>
</defs>
</svg>
