<svg width="32" height="31" viewBox="0 0 32 31" fill="none" xmlns="http://www.w3.org/2000/svg">
<path d="M22.4554 9.96429H9.54464L16 15.3246L22.4554 9.96429Z" fill="black"/>
<path d="M16 16.6071C15.8636 16.6071 15.7316 16.5598 15.6281 16.4736L8.57143 10.6141V21.0357H23.4286V10.6141L16.3719 16.4736C16.2684 16.5598 16.1364 16.6071 16 16.6071Z" fill="black"/>
<path d="M16 0C7.1635 0 0 6.93964 0 15.5C0 24.0604 7.1635 31 16 31C24.8365 31 32 24.0604 32 15.5C31.99 6.9437 24.8323 0.00973075 16 0ZM24.5714 21.5893C24.5714 21.895 24.3156 22.1429 24 22.1429H8C7.68443 22.1429 7.42857 21.895 7.42857 21.5893V9.41071C7.42857 9.10501 7.68443 8.85714 8 8.85714H24C24.3156 8.85714 24.5714 9.10501 24.5714 9.41071V21.5893Z" fill="black"/>
</svg>
