<svg width="31" height="31" viewBox="0 0 31 31" fill="none" xmlns="http://www.w3.org/2000/svg">
<g clip-path="url(#clip0)">
<path d="M15.5 0.645844C6.93624 0.645844 -3.8147e-06 7.46584 -3.8147e-06 15.8772C-3.8147e-06 22.6081 4.44075 28.3159 10.5981 30.3283C11.3731 30.4717 11.6573 30.0003 11.6573 29.596C11.6573 29.2343 11.6444 28.2759 11.6379 27.0062C7.32633 27.9246 6.417 24.9628 6.417 24.9628C5.71175 23.2048 4.69262 22.7346 4.69262 22.7346C3.28858 21.7904 4.80112 21.8098 4.80112 21.8098C6.35758 21.9157 7.1752 23.3792 7.1752 23.3792C8.55729 25.7081 10.8035 25.0351 11.6896 24.6463C11.8291 23.6608 12.2282 22.9904 12.6712 22.6093C9.22895 22.2283 5.611 20.9186 5.611 15.0828C5.611 13.4204 6.21162 12.0616 7.2062 10.996C7.03183 10.6111 6.5087 9.06234 7.34183 6.96468C7.34183 6.96468 8.63995 6.55651 11.6043 8.5263C12.8443 8.18789 14.1618 8.01997 15.4793 8.01222C16.7968 8.01997 18.1143 8.18789 19.3543 8.5263C22.2993 6.55651 23.5975 6.96468 23.5975 6.96468C24.4306 9.06234 23.9075 10.6111 23.7525 10.996C24.7406 12.0616 25.3412 13.4204 25.3412 15.0828C25.3412 20.9341 21.7181 22.2218 18.2693 22.5964C18.8118 23.0537 19.3156 23.9876 19.3156 25.4148C19.3156 27.4531 19.2962 29.0909 19.2962 29.5856C19.2962 29.9848 19.5675 30.4614 20.3618 30.309C26.5631 28.3095 31 22.5977 31 15.8772C31 7.46584 24.0599 0.645844 15.5 0.645844Z" fill="black"/>
</g>
<defs>
<clipPath id="clip0">
<rect width="31" height="31" fill="white"/>
</clipPath>
</defs>
</svg>
