<svg width="32" height="31" viewBox="0 0 32 31" fill="none" xmlns="http://www.w3.org/2000/svg">
<path d="M19.0625 15.5C19.0625 17.1385 17.6914 18.4668 16 18.4668C14.3086 18.4668 12.9375 17.1385 12.9375 15.5C12.9375 13.8615 14.3086 12.5332 16 12.5332C17.6914 12.5332 19.0625 13.8615 19.0625 15.5Z" fill="black"/>
<path d="M23.1621 10.2509C23.0149 9.86442 22.78 9.51462 22.4749 9.22749C22.1785 8.93185 21.8176 8.70433 21.4185 8.56171C21.0947 8.43991 20.6084 8.29493 19.7126 8.25543C18.7437 8.21262 18.4531 8.2034 16 8.2034C13.5466 8.2034 13.2561 8.21239 12.2874 8.2552C11.3916 8.29493 10.905 8.43991 10.5815 8.56171C10.1824 8.70433 9.82129 8.93185 9.52515 9.22749C9.21997 9.51462 8.98511 9.86418 8.83765 10.2509C8.71191 10.5645 8.56226 11.0359 8.52148 11.9036C8.47729 12.8421 8.46777 13.1235 8.46777 15.5002C8.46777 17.8767 8.47729 18.1582 8.52148 19.0969C8.56226 19.9646 8.71191 20.4358 8.83765 20.7494C8.98511 21.1361 9.21973 21.4856 9.5249 21.7728C9.82129 22.0684 10.1821 22.2959 10.5813 22.4385C10.905 22.5606 11.3916 22.7056 12.2874 22.7451C13.2561 22.7879 13.5464 22.7969 15.9998 22.7969C18.4534 22.7969 18.7439 22.7879 19.7124 22.7451C20.6082 22.7056 21.0947 22.5606 21.4185 22.4385C22.2197 22.1391 22.853 21.5256 23.1621 20.7494C23.2878 20.4358 23.4375 19.9646 23.4785 19.0969C23.5227 18.1582 23.532 17.8767 23.532 15.5002C23.532 13.1235 23.5227 12.8421 23.4785 11.9036C23.4377 11.0359 23.2881 10.5645 23.1621 10.2509ZM16 20.0704C13.3943 20.0704 11.282 18.0243 11.282 15.5C11.282 12.9757 13.3943 10.9297 16 10.9297C18.6055 10.9297 20.7178 12.9757 20.7178 15.5C20.7178 18.0243 18.6055 20.0704 16 20.0704ZM20.9043 11.8171C20.2954 11.8171 19.8018 11.3388 19.8018 10.749C19.8018 10.1591 20.2954 9.68089 20.9043 9.68089C21.5132 9.68089 22.0068 10.1591 22.0068 10.749C22.0066 11.3388 21.5132 11.8171 20.9043 11.8171Z" fill="black"/>
<path d="M16 0C7.16479 0 0 6.9409 0 15.5C0 24.0591 7.16479 31 16 31C24.8352 31 32 24.0591 32 15.5C32 6.9409 24.8352 0 16 0ZM25.1321 19.1695C25.0876 20.1169 24.9321 20.7638 24.7051 21.33C24.2278 22.5256 23.2522 23.4707 22.0181 23.933C21.4338 24.153 20.7659 24.3034 19.7881 24.3467C18.8083 24.39 18.4954 24.4004 16.0002 24.4004C13.5049 24.4004 13.1921 24.39 12.2122 24.3467C11.2344 24.3034 10.5664 24.153 9.98218 23.933C9.3689 23.7095 8.81372 23.3593 8.35474 22.9063C7.88745 22.4619 7.52588 21.9239 7.29517 21.33C7.06812 20.764 6.9126 20.1169 6.86816 19.1697C6.823 18.2204 6.8125 17.9171 6.8125 15.5C6.8125 13.0829 6.823 12.7796 6.86792 11.8305C6.91235 10.8831 7.06763 10.2362 7.29468 9.67C7.52539 9.07612 7.88721 8.53806 8.35474 8.09365C8.81348 7.64073 9.3689 7.29046 9.98193 7.06696C10.5664 6.847 11.2341 6.69658 12.2122 6.6533C13.1919 6.61002 13.5049 6.59961 16 6.59961C18.4951 6.59961 18.8081 6.61002 19.7878 6.65353C20.7659 6.69658 21.4336 6.847 22.0181 7.06672C22.6311 7.29022 23.1865 7.64073 23.6455 8.09365C24.1128 8.53829 24.4746 9.07612 24.7051 9.67C24.9324 10.2362 25.0876 10.8831 25.1323 11.8305C25.177 12.7796 25.1875 13.0829 25.1875 15.5C25.1875 17.9171 25.177 18.2204 25.1321 19.1695Z" fill="black"/>
</svg>
